<svg viewBox="0 0 120 120" xmlns="http://www.w3.org/2000/svg">
  <!-- Background circle with gradient -->
  <defs>
    <linearGradient id="bgGradient" x1="0%" y1="0%" x2="100%" y2="100%">
      <stop offset="0%" style="stop-color:#3b82f6;stop-opacity:1" />
      <stop offset="100%" style="stop-color:#8b5cf6;stop-opacity:1" />
    </linearGradient>
    
    <linearGradient id="targetGradient" x1="0%" y1="0%" x2="100%" y2="100%">
      <stop offset="0%" style="stop-color:#ffffff;stop-opacity:1" />
      <stop offset="100%" style="stop-color:#e2e8f0;stop-opacity:1" />
    </linearGradient>
    
    <linearGradient id="flameGradient" x1="0%" y1="100%" x2="0%" y2="0%">
      <stop offset="0%" style="stop-color:#f59e0b;stop-opacity:1" />
      <stop offset="50%" style="stop-color:#ef4444;stop-opacity:1" />
      <stop offset="100%" style="stop-color:#dc2626;stop-opacity:1" />
    </linearGradient>
    
    <linearGradient id="checkGradient" x1="0%" y1="0%" x2="100%" y2="100%">
      <stop offset="0%" style="stop-color:#10b981;stop-opacity:1" />
      <stop offset="100%" style="stop-color:#059669;stop-opacity:1" />
    </linearGradient>
    
    <!-- Glow effect -->
    <filter id="glow">
      <feGaussianBlur stdDeviation="3" result="coloredBlur"/>
      <feMerge> 
        <feMergeNode in="coloredBlur"/>
        <feMergeNode in="SourceGraphic"/>
      </feMerge>
    </filter>
    
    <!-- Shadow effect -->
    <filter id="shadow" x="-50%" y="-50%" width="200%" height="200%">
      <feDropShadow dx="2" dy="4" stdDeviation="3" flood-color="rgba(0,0,0,0.3)"/>
    </filter>
  </defs>
  
  <!-- Main background circle -->
  <circle cx="60" cy="60" r="56" fill="url(#bgGradient)" filter="url(#shadow)"/>
  
  <!-- Inner circle for depth -->
  <circle cx="60" cy="60" r="50" fill="none" stroke="rgba(255,255,255,0.1)" stroke-width="1"/>
  
  <!-- Target/bullseye representing goals -->
  <g transform="translate(60, 60)">
    <!-- Outer target ring -->
    <circle cx="0" cy="0" r="32" fill="none" stroke="url(#targetGradient)" stroke-width="3" opacity="0.8"/>
    
    <!-- Middle target ring -->
    <circle cx="0" cy="0" r="24" fill="none" stroke="url(#targetGradient)" stroke-width="2" opacity="0.6"/>
    
    <!-- Inner target ring -->
    <circle cx="0" cy="0" r="16" fill="none" stroke="url(#targetGradient)" stroke-width="2" opacity="0.4"/>
    
    <!-- Center dot -->
    <circle cx="0" cy="0" r="4" fill="url(#targetGradient)"/>
  </g>
  
  <!-- Flame icon for streak (top right) -->
  <g transform="translate(85, 25)">
    <path d="M0,20 C0,20 -8,15 -8,8 C-8,3 -4,0 0,0 C4,0 8,3 8,8 C8,15 0,20 0,20 Z" 
          fill="url(#flameGradient)" 
          filter="url(#glow)"/>
    <path d="M0,16 C0,16 -4,13 -4,8 C-4,5 -2,3 0,3 C2,3 4,5 4,8 C4,13 0,16 0,16 Z" 
          fill="#fbbf24" 
          opacity="0.8"/>
  </g>
  
  <!-- Checkmark for completion (bottom left) -->
  <g transform="translate(25, 85)">
    <circle cx="0" cy="0" r="12" fill="url(#checkGradient)" filter="url(#glow)"/>
    <path d="M-6,-2 L-2,3 L6,-5" 
          stroke="white" 
          stroke-width="3" 
          stroke-linecap="round" 
          stroke-linejoin="round" 
          fill="none"/>
  </g>
  
  <!-- Progress arc (partial circle showing progress) -->
  <g transform="translate(60, 60)">
    <path d="M 0,-40 A 40,40 0 0,1 28.28,-28.28" 
          fill="none" 
          stroke="#fbbf24" 
          stroke-width="4" 
          stroke-linecap="round" 
          opacity="0.8"
          filter="url(#glow)"/>
    
    <path d="M 28.28,-28.28 A 40,40 0 0,1 40,0" 
          fill="none" 
          stroke="#10b981" 
          stroke-width="4" 
          stroke-linecap="round" 
          opacity="0.8"
          filter="url(#glow)"/>
  </g>
  
  <!-- Sparkle effects -->
  <g opacity="0.7">
    <!-- Sparkle 1 -->
    <g transform="translate(30, 30)">
      <path d="M0,-4 L1,0 L0,4 L-1,0 Z" fill="white"/>
      <path d="M-4,0 L0,1 L4,0 L0,-1 Z" fill="white"/>
    </g>
    
    <!-- Sparkle 2 -->
    <g transform="translate(90, 75)">
      <path d="M0,-3 L0.5,0 L0,3 L-0.5,0 Z" fill="white"/>
      <path d="M-3,0 L0,0.5 L3,0 L0,-0.5 Z" fill="white"/>
    </g>
    
    <!-- Sparkle 3 -->
    <g transform="translate(20, 70)">
      <path d="M0,-2 L0.5,0 L0,2 L-0.5,0 Z" fill="white"/>
      <path d="M-2,0 L0,0.5 L2,0 L0,-0.5 Z" fill="white"/>
    </g>
  </g>
  
  <!-- Subtle outer glow -->
  <circle cx="60" cy="60" r="58" fill="none" stroke="rgba(59,130,246,0.2)" stroke-width="2"/>
</svg>