<svg viewBox="0 0 240 240" xmlns="http://www.w3.org/2000/svg">
  <!-- Gradient Definitions -->
  <defs>
    <!-- Background Gradient -->
    <radialGradient id="backgroundGradient" cx="50%" cy="30%">
      <stop offset="0%" style="stop-color:#1f2937;stop-opacity:1" />
      <stop offset="100%" style="stop-color:#0f172a;stop-opacity:1" />
    </radialGradient>
    
    <!-- Border Gradient -->
    <linearGradient id="borderGradient" x1="0%" y1="0%" x2="100%" y2="100%">
      <stop offset="0%" style="stop-color:#3b82f6;stop-opacity:1" />
      <stop offset="50%" style="stop-color:#8b5cf6;stop-opacity:1" />
      <stop offset="100%" style="stop-color:#06b6d4;stop-opacity:1" />
    </linearGradient>
    
    <!-- Progress Ring Gradient -->
    <linearGradient id="progressGradient" x1="0%" y1="0%" x2="100%" y2="0%">
      <stop offset="0%" style="stop-color:#3b82f6;stop-opacity:1" />
      <stop offset="50%" style="stop-color:#8b5cf6;stop-opacity:1" />
      <stop offset="100%" style="stop-color:#06b6d4;stop-opacity:1" />
    </linearGradient>
    
    <!-- Inner Circle Gradient -->
    <radialGradient id="innerGradient" cx="50%" cy="30%">
      <stop offset="0%" style="stop-color:#374151;stop-opacity:1" />
      <stop offset="100%" style="stop-color:#1f2937;stop-opacity:1" />
    </radialGradient>
    
    <!-- Center Target Gradient -->
    <radialGradient id="centerGradient" cx="50%" cy="30%">
      <stop offset="0%" style="stop-color:#4f46e5;stop-opacity:1" />
      <stop offset="100%" style="stop-color:#1e40af;stop-opacity:1" />
    </radialGradient>
    
    <!-- Bullseye Gradient -->
    <radialGradient id="bullseyeGradient" cx="50%" cy="30%">
      <stop offset="0%" style="stop-color:#60a5fa;stop-opacity:1" />
      <stop offset="100%" style="stop-color:#3b82f6;stop-opacity:1" />
    </radialGradient>
    
    <!-- S Letter Gradient -->
    <linearGradient id="sLetterGradient" x1="0%" y1="0%" x2="100%" y2="100%">
      <stop offset="0%" style="stop-color:#fbbf24;stop-opacity:1" />
      <stop offset="50%" style="stop-color:#f59e0b;stop-opacity:1" />
      <stop offset="100%" style="stop-color:#f97316;stop-opacity:1" />
    </linearGradient>
    
    <!-- Subtle Glow Effect -->
    <filter id="glow">
      <feGaussianBlur stdDeviation="3" result="coloredBlur"/>
      <feMerge> 
        <feMergeNode in="coloredBlur"/>
        <feMergeNode in="SourceGraphic"/>
      </feMerge>
    </filter>
  </defs>

  <!-- Background Circle -->
  <circle cx="120" cy="120" r="115" fill="url(#backgroundGradient)" stroke="url(#borderGradient)" stroke-width="4"/>
  
  <!-- Outer Progress Ring -->
  <circle cx="120" cy="120" r="95" fill="none" stroke="#1f2937" stroke-width="8" opacity="0.3"/>
  <circle cx="120" cy="120" r="95" fill="none" stroke="url(#progressGradient)" stroke-width="8" 
          stroke-dasharray="240 360" stroke-dashoffset="60" stroke-linecap="round" 
          transform="rotate(-90 120 120)"/>
  
  <!-- Inner Target Circle -->
  <circle cx="120" cy="120" r="70" fill="url(#innerGradient)" stroke="#374151" stroke-width="2"/>
  
  <!-- Target Rings -->
  <circle cx="120" cy="120" r="60" fill="none" stroke="#4b5563" stroke-width="1" opacity="0.5"/>
  <circle cx="120" cy="120" r="50" fill="none" stroke="#6b7280" stroke-width="1" opacity="0.3"/>
  
  <!-- Letter S for Solo Leveling -->
  <g transform="translate(120, 120)">
    <path d="M15 -20 L15 -15 L-5 -15 C-10 -15, -15 -10, -15 -5 C-15 0, -10 5, -5 5 L5 5 C10 5, 15 10, 15 15 C15 20, 10 25, 5 25 L-15 25 L-15 20 L5 20 C10 20, 15 15, 15 10 C15 5, 10 0, 5 0 L-5 0 C-10 0, -15 -5, -15 -10 C-15 -15, -10 -20, -5 -20 L15 -20 Z" 
          fill="#3b82f6" stroke="#60a5fa" stroke-width="1"/>
  </g>
</svg>